<mxfile host="Electron" modified="2024-05-21T14:28:51.562Z" agent="Mozilla/5.0 (Windows NT 10.0; Win64; x64) AppleWebKit/537.36 (KHTML, like Gecko) draw.io/24.4.0 Chrome/120.0.6099.109 Electron/28.1.0 Safari/537.36" etag="c4Z_t41wVahkLy6ExVrg" version="24.4.0" type="device" pages="2">
  <diagram id="C5RBs43oDa-KdzZeNtuy" name="schema_nombre_positif">
    <mxGraphModel dx="1210" dy="469" grid="0" gridSize="10" guides="1" tooltips="1" connect="1" arrows="1" fold="0" page="0" pageScale="1" pageWidth="827" pageHeight="1169" math="0" shadow="0">
      <root>
        <mxCell id="WIyWlLk6GJQsqaUBKTNV-0" />
        <mxCell id="WIyWlLk6GJQsqaUBKTNV-1" parent="WIyWlLk6GJQsqaUBKTNV-0" />
        <mxCell id="S2o0Q72f8Gyrs-bDaXfr-1" style="edgeStyle=orthogonalEdgeStyle;rounded=0;orthogonalLoop=1;jettySize=auto;html=1;fontSize=14;endArrow=block;endFill=1;strokeWidth=2;exitX=0.5;exitY=1;exitDx=0;exitDy=0;entryX=0.5;entryY=0;entryDx=0;entryDy=0;" parent="WIyWlLk6GJQsqaUBKTNV-1" source="Jrq8Ktv_CHyUVIfcrWZZ-0" target="Jrq8Ktv_CHyUVIfcrWZZ-2" edge="1">
          <mxGeometry relative="1" as="geometry">
            <mxPoint x="220" y="115" as="sourcePoint" />
            <mxPoint x="312" y="122" as="targetPoint" />
          </mxGeometry>
        </mxCell>
        <mxCell id="S2o0Q72f8Gyrs-bDaXfr-3" value="" style="edgeStyle=orthogonalEdgeStyle;rounded=0;orthogonalLoop=1;jettySize=auto;html=1;fontSize=14;endArrow=block;endFill=1;strokeWidth=2;" parent="WIyWlLk6GJQsqaUBKTNV-1" target="S2o0Q72f8Gyrs-bDaXfr-2" edge="1">
          <mxGeometry relative="1" as="geometry">
            <mxPoint x="220" y="192" as="sourcePoint" />
          </mxGeometry>
        </mxCell>
        <mxCell id="S2o0Q72f8Gyrs-bDaXfr-6" value="oui" style="edgeStyle=orthogonalEdgeStyle;rounded=0;orthogonalLoop=1;jettySize=auto;html=1;fontFamily=Roboto;fontSource=https%3A%2F%2Ffonts.googleapis.com%2Fcss%3Ffamily%3DRoboto;fontSize=14;fontColor=#000000;endArrow=block;endFill=1;strokeWidth=2;fillColor=#d5e8d4;strokeColor=#82b366;" parent="WIyWlLk6GJQsqaUBKTNV-1" source="S2o0Q72f8Gyrs-bDaXfr-2" target="S2o0Q72f8Gyrs-bDaXfr-5" edge="1">
          <mxGeometry relative="1" as="geometry" />
        </mxCell>
        <mxCell id="S2o0Q72f8Gyrs-bDaXfr-9" value="non" style="edgeStyle=orthogonalEdgeStyle;rounded=0;orthogonalLoop=1;jettySize=auto;html=1;fontFamily=Roboto;fontSource=https%3A%2F%2Ffonts.googleapis.com%2Fcss%3Ffamily%3DRoboto;fontSize=14;fontColor=#000000;endArrow=block;endFill=1;strokeWidth=2;fillColor=#f8cecc;strokeColor=#b85450;entryX=0.5;entryY=0;entryDx=0;entryDy=0;" parent="WIyWlLk6GJQsqaUBKTNV-1" source="S2o0Q72f8Gyrs-bDaXfr-2" target="Jrq8Ktv_CHyUVIfcrWZZ-3" edge="1">
          <mxGeometry x="-0.2174" relative="1" as="geometry">
            <mxPoint x="220" y="394" as="targetPoint" />
            <Array as="points">
              <mxPoint x="220" y="355" />
              <mxPoint x="220" y="355" />
            </Array>
            <mxPoint as="offset" />
          </mxGeometry>
        </mxCell>
        <mxCell id="S2o0Q72f8Gyrs-bDaXfr-2" value="&lt;span style=&quot;font-family: &amp;quot;source sans pro&amp;quot; , &amp;quot;roboto&amp;quot; , &amp;quot;san francisco&amp;quot; , &amp;quot;segoe ui&amp;quot; , sans-serif&quot;&gt;&lt;font style=&quot;font-size: 14px&quot;&gt;nombre ≤&lt;/font&gt;&lt;/span&gt;&amp;nbsp;0" style="rhombus;whiteSpace=wrap;html=1;rounded=0;fontFamily=Roboto;fontSource=https%3A%2F%2Ffonts.googleapis.com%2Fcss%3Ffamily%3DRoboto;fontSize=14;" parent="WIyWlLk6GJQsqaUBKTNV-1" vertex="1">
          <mxGeometry x="172" y="252.5" width="98" height="80" as="geometry" />
        </mxCell>
        <mxCell id="S2o0Q72f8Gyrs-bDaXfr-7" style="edgeStyle=orthogonalEdgeStyle;rounded=0;orthogonalLoop=1;jettySize=auto;html=1;exitX=0.5;exitY=0;exitDx=0;exitDy=0;fontFamily=Roboto;fontSource=https%3A%2F%2Ffonts.googleapis.com%2Fcss%3Ffamily%3DRoboto;fontSize=14;fontColor=#000000;endArrow=block;endFill=1;strokeWidth=2;entryX=0;entryY=0.5;entryDx=0;entryDy=0;" parent="WIyWlLk6GJQsqaUBKTNV-1" source="S2o0Q72f8Gyrs-bDaXfr-5" target="Jrq8Ktv_CHyUVIfcrWZZ-2" edge="1">
          <mxGeometry relative="1" as="geometry">
            <mxPoint x="-29" y="96" as="targetPoint" />
            <Array as="points">
              <mxPoint x="45" y="187" />
            </Array>
          </mxGeometry>
        </mxCell>
        <mxCell id="S2o0Q72f8Gyrs-bDaXfr-5" value="Insulter copieusement l&#39;intelligence de la personne" style="whiteSpace=wrap;html=1;rounded=0;fontFamily=Roboto;fontSource=https%3A%2F%2Ffonts.googleapis.com%2Fcss%3Ffamily%3DRoboto;fontSize=14;" parent="WIyWlLk6GJQsqaUBKTNV-1" vertex="1">
          <mxGeometry x="-30" y="262.5" width="150" height="60" as="geometry" />
        </mxCell>
        <mxCell id="S2o0Q72f8Gyrs-bDaXfr-12" style="edgeStyle=orthogonalEdgeStyle;rounded=0;orthogonalLoop=1;jettySize=auto;html=1;entryX=0.5;entryY=0;entryDx=0;entryDy=0;fontFamily=Roboto;fontSource=https%3A%2F%2Ffonts.googleapis.com%2Fcss%3Ffamily%3DRoboto;fontSize=14;fontColor=#000000;endArrow=block;endFill=1;strokeWidth=2;exitX=0.5;exitY=1;exitDx=0;exitDy=0;" parent="WIyWlLk6GJQsqaUBKTNV-1" source="Jrq8Ktv_CHyUVIfcrWZZ-3" target="Jrq8Ktv_CHyUVIfcrWZZ-1" edge="1">
          <mxGeometry relative="1" as="geometry">
            <mxPoint x="220" y="487" as="targetPoint" />
            <mxPoint x="186" y="478" as="sourcePoint" />
          </mxGeometry>
        </mxCell>
        <mxCell id="Jrq8Ktv_CHyUVIfcrWZZ-0" value="Début" style="ellipse;whiteSpace=wrap;html=1;" vertex="1" parent="WIyWlLk6GJQsqaUBKTNV-1">
          <mxGeometry x="176" y="94" width="88" height="33" as="geometry" />
        </mxCell>
        <mxCell id="Jrq8Ktv_CHyUVIfcrWZZ-1" value="Fin" style="ellipse;whiteSpace=wrap;html=1;" vertex="1" parent="WIyWlLk6GJQsqaUBKTNV-1">
          <mxGeometry x="176" y="485" width="88" height="33" as="geometry" />
        </mxCell>
        <mxCell id="Jrq8Ktv_CHyUVIfcrWZZ-2" value="&lt;span style=&quot;font-family: Roboto; font-size: 14px;&quot;&gt;nombre = Demander un nombre positif&lt;/span&gt;" style="shape=parallelogram;perimeter=parallelogramPerimeter;whiteSpace=wrap;html=1;fixedSize=1;" vertex="1" parent="WIyWlLk6GJQsqaUBKTNV-1">
          <mxGeometry x="134.5" y="157" width="171" height="60" as="geometry" />
        </mxCell>
        <mxCell id="Jrq8Ktv_CHyUVIfcrWZZ-3" value="&lt;span style=&quot;font-family: Roboto; font-size: 14px;&quot;&gt;Féliciter le&lt;/span&gt;&lt;div&gt;&lt;span style=&quot;font-family: Roboto; font-size: 14px;&quot;&gt;travail&lt;/span&gt;&lt;br&gt;&lt;/div&gt;" style="shape=parallelogram;perimeter=parallelogramPerimeter;whiteSpace=wrap;html=1;fixedSize=1;" vertex="1" parent="WIyWlLk6GJQsqaUBKTNV-1">
          <mxGeometry x="160" y="390" width="120" height="60" as="geometry" />
        </mxCell>
      </root>
    </mxGraphModel>
  </diagram>
  <diagram id="MvVzn1IWWKhnigtoGXNt" name="schema_afficher_nombre">
    <mxGraphModel dx="1182" dy="683" grid="0" gridSize="10" guides="1" tooltips="1" connect="1" arrows="1" fold="1" page="0" pageScale="1" pageWidth="827" pageHeight="1169" math="0" shadow="0">
      <root>
        <mxCell id="0" />
        <mxCell id="1" parent="0" />
        <mxCell id="kxbKuL2oPMPVY0ek13CE-1" style="edgeStyle=orthogonalEdgeStyle;rounded=0;orthogonalLoop=1;jettySize=auto;html=1;fontSize=14;endArrow=block;endFill=1;strokeWidth=2;exitX=0.5;exitY=1;exitDx=0;exitDy=0;entryX=0.5;entryY=0;entryDx=0;entryDy=0;" edge="1" parent="1" source="kxbKuL2oPMPVY0ek13CE-9">
          <mxGeometry relative="1" as="geometry">
            <mxPoint x="432" y="218" as="sourcePoint" />
            <mxPoint x="429" y="251" as="targetPoint" />
          </mxGeometry>
        </mxCell>
        <mxCell id="kxbKuL2oPMPVY0ek13CE-3" value="oui" style="edgeStyle=orthogonalEdgeStyle;rounded=0;orthogonalLoop=1;jettySize=auto;html=1;fontFamily=Roboto;fontSource=https%3A%2F%2Ffonts.googleapis.com%2Fcss%3Ffamily%3DRoboto;fontSize=14;fontColor=#000000;endArrow=block;endFill=1;strokeWidth=2;fillColor=#d5e8d4;strokeColor=#82b366;entryX=1;entryY=0.5;entryDx=0;entryDy=0;" edge="1" parent="1" source="kxbKuL2oPMPVY0ek13CE-5" target="tVtF2gUPgoAStBiTqCqn-1">
          <mxGeometry relative="1" as="geometry">
            <mxPoint x="224" y="429" as="targetPoint" />
            <Array as="points">
              <mxPoint x="268" y="369" />
              <mxPoint x="268" y="466" />
            </Array>
          </mxGeometry>
        </mxCell>
        <mxCell id="kxbKuL2oPMPVY0ek13CE-4" value="non" style="edgeStyle=orthogonalEdgeStyle;rounded=0;orthogonalLoop=1;jettySize=auto;html=1;fontFamily=Roboto;fontSource=https%3A%2F%2Ffonts.googleapis.com%2Fcss%3Ffamily%3DRoboto;fontSize=14;fontColor=#000000;endArrow=block;endFill=1;strokeWidth=2;fillColor=#f8cecc;strokeColor=#b85450;entryX=0.5;entryY=0;entryDx=0;entryDy=0;" edge="1" parent="1" source="kxbKuL2oPMPVY0ek13CE-5" target="kxbKuL2oPMPVY0ek13CE-10">
          <mxGeometry x="-0.2174" relative="1" as="geometry">
            <mxPoint x="358" y="497" as="targetPoint" />
            <Array as="points">
              <mxPoint x="355" y="408" />
              <mxPoint x="355" y="408" />
            </Array>
            <mxPoint as="offset" />
          </mxGeometry>
        </mxCell>
        <mxCell id="kxbKuL2oPMPVY0ek13CE-5" value="&lt;span style=&quot;font-family: &amp;quot;source sans pro&amp;quot; , &amp;quot;roboto&amp;quot; , &amp;quot;san francisco&amp;quot; , &amp;quot;segoe ui&amp;quot; , sans-serif&quot;&gt;&lt;font style=&quot;font-size: 14px&quot;&gt;&amp;nbsp;i &amp;lt; 11&lt;/font&gt;&lt;/span&gt;" style="rhombus;whiteSpace=wrap;html=1;rounded=0;fontFamily=Roboto;fontSource=https%3A%2F%2Ffonts.googleapis.com%2Fcss%3Ffamily%3DRoboto;fontSize=14;" vertex="1" parent="1">
          <mxGeometry x="316" y="328.5" width="80" height="80" as="geometry" />
        </mxCell>
        <mxCell id="kxbKuL2oPMPVY0ek13CE-6" style="edgeStyle=orthogonalEdgeStyle;rounded=0;orthogonalLoop=1;jettySize=auto;html=1;exitX=0.5;exitY=0;exitDx=0;exitDy=0;entryX=0.5;entryY=0;entryDx=0;entryDy=0;fontFamily=Roboto;fontSource=https%3A%2F%2Ffonts.googleapis.com%2Fcss%3Ffamily%3DRoboto;fontSize=14;fontColor=#000000;endArrow=block;endFill=1;strokeWidth=2;" edge="1" parent="1" source="kxbKuL2oPMPVY0ek13CE-7" target="kxbKuL2oPMPVY0ek13CE-5">
          <mxGeometry relative="1" as="geometry">
            <mxPoint x="305" y="285" as="targetPoint" />
            <Array as="points">
              <mxPoint x="171" y="292" />
              <mxPoint x="356" y="292" />
            </Array>
          </mxGeometry>
        </mxCell>
        <mxCell id="kxbKuL2oPMPVY0ek13CE-7" value="i = i + 1" style="whiteSpace=wrap;html=1;rounded=0;fontFamily=Roboto;fontSource=https%3A%2F%2Ffonts.googleapis.com%2Fcss%3Ffamily%3DRoboto;fontSize=14;" vertex="1" parent="1">
          <mxGeometry x="130" y="337" width="81" height="32" as="geometry" />
        </mxCell>
        <mxCell id="kxbKuL2oPMPVY0ek13CE-9" value="Début" style="ellipse;whiteSpace=wrap;html=1;" vertex="1" parent="1">
          <mxGeometry x="385" y="173" width="88" height="33" as="geometry" />
        </mxCell>
        <mxCell id="kxbKuL2oPMPVY0ek13CE-10" value="Fin" style="ellipse;whiteSpace=wrap;html=1;" vertex="1" parent="1">
          <mxGeometry x="312" y="450" width="88" height="33" as="geometry" />
        </mxCell>
        <mxCell id="tVtF2gUPgoAStBiTqCqn-4" style="edgeStyle=orthogonalEdgeStyle;rounded=0;orthogonalLoop=1;jettySize=auto;html=1;exitX=0.5;exitY=1;exitDx=0;exitDy=0;entryX=1;entryY=0.5;entryDx=0;entryDy=0;endArrow=block;endFill=1;strokeWidth=2;" edge="1" parent="1" source="kxbKuL2oPMPVY0ek13CE-13" target="kxbKuL2oPMPVY0ek13CE-5">
          <mxGeometry relative="1" as="geometry" />
        </mxCell>
        <mxCell id="kxbKuL2oPMPVY0ek13CE-13" value="i = 1" style="rounded=0;whiteSpace=wrap;html=1;" vertex="1" parent="1">
          <mxGeometry x="388" y="247" width="84" height="39" as="geometry" />
        </mxCell>
        <mxCell id="tVtF2gUPgoAStBiTqCqn-5" style="edgeStyle=orthogonalEdgeStyle;rounded=0;orthogonalLoop=1;jettySize=auto;html=1;exitX=0.5;exitY=0;exitDx=0;exitDy=0;strokeWidth=2;endArrow=block;endFill=1;" edge="1" parent="1" source="tVtF2gUPgoAStBiTqCqn-1" target="kxbKuL2oPMPVY0ek13CE-7">
          <mxGeometry relative="1" as="geometry" />
        </mxCell>
        <mxCell id="tVtF2gUPgoAStBiTqCqn-1" value="&lt;div&gt;&lt;font face=&quot;Roboto&quot;&gt;&lt;span style=&quot;font-size: 14px;&quot;&gt;Afficher i&lt;/span&gt;&lt;/font&gt;&lt;/div&gt;" style="shape=parallelogram;perimeter=parallelogramPerimeter;whiteSpace=wrap;html=1;fixedSize=1;" vertex="1" parent="1">
          <mxGeometry x="110.5" y="449" width="120" height="34" as="geometry" />
        </mxCell>
      </root>
    </mxGraphModel>
  </diagram>
</mxfile>
